<svg width="52" height="53" viewBox="0 0 52 53" fill="none" xmlns="http://www.w3.org/2000/svg">
<path d="M3.18394 39.3559L3.18358 39.3213L3.18397 39.32V39.2526V13.2526C3.18397 10.6492 4.21816 8.15247 6.05902 6.3116C7.89989 4.47074 10.3966 3.43655 13 3.43655H38.9995C41.5991 3.44215 44.0904 4.47874 45.9267 6.3189C47.7631 8.15917 48.7944 10.6528 48.7944 13.2526V39.4006C48.7556 41.974 47.7076 44.4293 45.8761 46.2377C44.0438 48.0468 41.574 49.0635 38.9991 49.0687H13C10.4144 49.0688 7.9332 48.0488 6.09528 46.2302C4.25735 44.4117 3.21116 41.9414 3.18394 39.3559ZM45.6837 35.2324L46.5173 36.1856V34.9193L46.5173 13.2526L46.5173 13.2511C46.5112 11.2597 45.7174 9.35157 44.3092 7.9434C42.9011 6.53523 40.9929 5.74143 39.0015 5.73533H39L13 5.73533L12.9986 5.73533C11.0071 5.74143 9.09899 6.53523 7.69082 7.9434C6.28265 9.35157 5.48885 11.2597 5.48275 13.2511V13.2526V34.7676V36.0868L6.32455 35.0711L10.9387 29.5038C10.9388 29.5037 10.9389 29.5035 10.9391 29.5034C11.4556 28.8839 12.1019 28.3855 12.8324 28.0434C13.563 27.7013 14.3599 27.5239 15.1667 27.5239C15.9735 27.5239 16.7704 27.7013 17.501 28.0434C18.2313 28.3854 18.8776 28.8837 19.3941 29.503C19.3943 29.5033 19.3945 29.5036 19.3947 29.5038L21.4297 31.9718L21.7859 32.4038L22.1546 31.9825L28.3673 24.8822C28.8972 24.3198 29.5363 23.8714 30.2455 23.5646C30.9572 23.2566 31.7245 23.0978 32.5 23.0978C33.2755 23.0978 34.0428 23.2566 34.7546 23.5646C35.4638 23.8714 36.1029 24.3198 36.6327 24.8822L45.6837 35.2324Z" fill="#374151" fill-opacity="0.4" stroke="white" stroke-width="0.95122"/>
<path d="M19.0246 15.4193C19.0246 17.5498 17.2974 19.277 15.1668 19.277C13.0363 19.277 11.3091 17.5498 11.3091 15.4193C11.3091 13.2887 13.0363 11.5615 15.1668 11.5615C17.2974 11.5615 19.0246 13.2887 19.0246 15.4193Z" fill="#374151" fill-opacity="0.4" stroke="white" stroke-width="0.95122"/>
</svg>
